<svg width="200" height="200" viewBox="0 0 200 200" fill="none" xmlns="http://www.w3.org/2000/svg">
<path d="M127.8 80.9002L103.7 54.4002C102.6 53.3002 101.1 52.8002 99.7 52.9002C98.3 52.8002 96.8 53.3002 95.7 54.4002L71.7 80.9002C69.7 82.9002 69.7 86.3002 71.7 88.3002C73.7 90.3002 77.1 90.3002 79.1 88.3002L94 71.9002V140.9C94 144.1 96.6 146.7 99.8 146.7C103 146.7 105.6 144.1 105.6 140.9V71.9002L120.5 88.3002C122.5 90.3002 125.9 90.3002 127.9 88.3002C129.8 86.3002 129.8 83.0002 127.8 80.9002Z" fill="white"/>
</svg>
