<svg width="200" height="200" viewBox="0 0 200 200" fill="none" xmlns="http://www.w3.org/2000/svg">
<path d="M94.2 76.8001L70.1 50.3001C69 49.2001 67.5 48.7001 66.1 48.8001C64.7 48.7001 63.2 49.2001 62.1 50.3001L38 76.8001C36 78.8001 36 82.2001 38 84.2001C40 86.2001 43.4 86.2001 45.4 84.2001L60.3 67.8001V136.8C60.3 140 62.9 142.6 66.1 142.6C69.3 142.6 71.9 140 71.9 136.8V67.8001L86.8 84.2001C88.8 86.2001 92.2 86.2001 94.2 84.2001C96.2 82.1001 96.2 78.8001 94.2 76.8001Z" fill="white"/>
<path d="M104.2 125.8L128.3 152.3C129.4 153.4 130.9 153.9 132.3 153.8C133.7 153.9 135.2 153.4 136.3 152.3L160.3 125.8C162.3 123.8 162.3 120.4 160.3 118.4C158.3 116.4 154.9 116.4 152.9 118.4L138 134.9V65.9001C138 62.7001 135.4 60.1001 132.2 60.1001C129 60.1001 126.4 62.7001 126.4 65.9001V134.9L111.5 118.5C109.5 116.5 106.1 116.5 104.1 118.5C102.1 120.5 102.1 123.8 104.2 125.8Z" fill="white"/>
</svg>
