<svg width="401" height="501" viewBox="0 0 401 501" fill="none" xmlns="http://www.w3.org/2000/svg">
<path fill-rule="evenodd" clip-rule="evenodd" d="M120.386 67.7439C120.386 49.7947 134.937 35.2439 152.886 35.2439H247.233C265.182 35.2439 279.733 49.7946 279.733 67.7439V112.46H314.733V67.7439C314.733 30.4647 284.512 0.243896 247.233 0.243896H152.886C115.607 0.243896 85.3865 30.4647 85.3865 67.7439V112.46H120.386V67.7439ZM0.0597382 450.245C0.0597382 477.859 22.4455 500.245 50.0597 500.245H350.06C377.674 500.245 400.06 477.859 400.06 450.245V162.46C400.06 134.846 377.674 112.46 350.06 112.46H50.0597C22.4455 112.46 0.0597382 134.846 0.0597382 162.46V450.245Z" fill="#FF0000"/>
</svg>
