<svg width="1226" height="592" viewBox="0 0 1226 592" fill="none" xmlns="http://www.w3.org/2000/svg">
<path fill-rule="evenodd" clip-rule="evenodd" d="M0.870483 75.6862L109.34 0.00732422C123.2 12.8675 130.519 20.93 139.903 42.2557C190.108 4.4782 214.982 -8.80091 243.276 6.29971C295.449 34.1442 386.46 116.281 386.46 165.492C394.868 462.04 388.767 443.979 361.931 479.121C313.47 533.885 267.612 582.495 212.714 582.495H50.0129C44.6195 200.462 73.0969 155.938 0.870483 75.6862ZM160.992 133.391C167.422 142.395 164.774 291.725 163.284 483.441H220.225C233.6 483.441 274.108 441.404 274.108 420.386C276.587 334.01 279.536 288.7 274.108 186.51C271.864 161.55 263.613 147.159 229.779 120.398C219.297 112.872 199.193 119.597 160.992 133.391Z" fill="#232323"/>
<path fill-rule="evenodd" clip-rule="evenodd" d="M437.923 69.4763C468.479 109.34 481.903 132.558 486.178 178.576V582.105H598.775V343.624H672.888C690.714 369.11 689.84 368.289 693.539 379.077C697.238 389.865 708.333 486.029 709.972 582.105H834.458C826.428 448.344 822.45 368.847 812.511 350.104C801.724 329.762 786.156 309.872 751.234 277.185C775.624 254.686 788.356 240.524 808.178 210.541C817.088 162.867 814.876 134.516 806.483 116.333C800.889 90.457 696.017 0.798974 668.71 0.240039C650.144 -0.14 631.996 5.7424 577.065 46.1197C563.197 22.5665 554.865 13.4481 534.434 0.240039L437.923 69.4763ZM596.919 119.977C599.154 128.174 599.221 173.109 599.5 247.838H633.649C647.112 243.862 654.63 238.147 667.997 223.219C680.538 208.748 685.451 200.383 688.05 184.702C689.793 163.115 687.147 151.759 675.343 132.883C667.267 119.201 662.84 114.212 655.092 109.653C633.994 109.587 621.522 111.178 596.919 119.977Z" fill="#232323"/>
<path fill-rule="evenodd" clip-rule="evenodd" d="M893.488 447.344C883.421 423.875 886.822 297.355 886.822 297.355C886.822 297.355 884.294 168.356 893.488 146.533C910.419 106.344 961.816 58.2065 961.816 58.2065C961.816 58.2065 1023.83 0.240039 1055.14 0.240039C1089.1 0.240039 1156.8 64.8727 1156.8 64.8727C1156.8 64.8727 1202.72 109.806 1218.46 146.533C1225.13 162.08 1225.13 297.355 1225.13 297.355C1225.13 297.355 1225.13 428.689 1218.46 447.344C1205.36 484.004 1156.8 525.672 1156.8 525.672C1156.8 525.672 1094.99 591.5 1055.14 591.5C1020.66 590.803 961.816 534.004 961.816 534.004C961.816 534.004 910.477 486.952 893.488 447.344ZM1003.69 423.065C1016.17 445.691 1040.31 475.287 1055.49 475.287C1070.67 475.287 1096.08 446.216 1106.95 423.065C1113.3 398.747 1113.36 183.265 1106.95 170.023C1094.67 144.651 1072.55 117.99 1055.49 117.99C1038.43 117.99 1016.87 142.373 1003.69 170.023C997.134 183.776 996.534 410.091 1003.69 423.065Z" fill="#232323"/>
</svg>
