<svg width="513" height="512" viewBox="0 0 513 512" fill="none" xmlns="http://www.w3.org/2000/svg">
<path d="M256.082 49.471C323.348 49.471 331.315 49.728 357.882 50.94C382.444 52.061 395.782 56.164 404.66 59.614C415.602 63.6525 425.5 70.092 433.626 78.459C441.993 86.585 448.433 96.4829 452.471 107.425C455.921 116.302 460.025 129.641 461.145 154.203C462.357 180.768 462.614 188.735 462.614 256.003C462.614 323.271 462.357 331.236 461.145 357.803C460.024 382.365 455.92 395.703 452.471 404.581C448.28 415.446 441.861 425.313 433.626 433.547C425.392 441.782 415.525 448.201 404.66 452.392C395.783 455.842 382.444 459.946 357.882 461.066C331.322 462.278 323.355 462.535 256.082 462.535C188.809 462.535 180.845 462.278 154.282 461.066C129.72 459.945 116.382 455.841 107.504 452.392C96.5621 448.353 86.6642 441.914 78.5382 433.547C70.1712 425.421 63.7317 415.523 59.6932 404.581C56.2432 395.704 52.1392 382.365 51.0192 357.803C49.8072 331.239 49.5502 323.271 49.5502 256.003C49.5502 188.735 49.8072 180.77 51.0192 154.203C52.1402 129.641 56.2432 116.303 59.6932 107.425C63.7321 96.4823 70.1723 86.5841 78.5402 78.458C86.6662 70.091 96.5641 63.6515 107.506 59.613C116.383 56.163 129.722 52.059 154.284 50.939C180.849 49.727 188.816 49.47 256.084 49.47M256.084 4.07898C187.666 4.07898 179.084 4.36898 152.218 5.59498C125.403 6.81898 107.091 11.077 91.0672 17.305C74.2578 23.6306 59.0305 33.5468 46.4472 46.362C33.6291 58.9445 23.7101 74.1718 17.3822 90.982C11.1592 107.007 6.90116 125.319 5.68216 152.134C4.45116 179 4.16116 187.582 4.16116 256C4.16116 324.418 4.45116 333 5.68216 359.866C6.90616 386.681 11.1642 404.993 17.3922 421.017C23.7178 437.826 33.634 453.054 46.4492 465.637C59.0324 478.452 74.2597 488.368 91.0692 494.694C107.094 500.922 125.406 505.18 152.22 506.404C179.09 507.63 187.669 507.92 256.086 507.92C324.503 507.92 333.086 507.63 359.952 506.404C386.767 505.18 405.079 500.922 421.103 494.694C437.838 488.222 453.036 478.325 465.723 465.637C478.411 452.95 488.308 437.752 494.78 421.017C501.008 404.992 505.266 386.68 506.49 359.866C507.716 332.996 508.006 324.417 508.006 256C508.006 187.583 507.716 179 506.49 152.134C505.266 125.319 501.008 107.007 494.78 90.983C488.455 74.1735 478.538 58.9463 465.723 46.363C453.14 33.5452 437.911 23.627 421.1 17.3C405.075 11.077 386.763 6.81898 359.948 5.59998C333.082 4.36898 324.5 4.07898 256.082 4.07898H256.084Z" fill="#FF0000"/>
<path d="M256.082 126.635C230.496 126.635 205.485 134.222 184.211 148.437C162.937 162.652 146.356 182.856 136.564 206.494C126.773 230.133 124.211 256.144 129.203 281.238C134.194 306.332 146.515 329.383 164.607 347.475C182.699 365.567 205.75 377.888 230.844 382.879C255.939 387.871 281.95 385.309 305.588 375.518C329.226 365.726 349.43 349.145 363.645 327.871C377.86 306.597 385.447 281.586 385.447 256C385.447 221.69 371.818 188.786 347.557 164.525C323.296 140.264 290.392 126.635 256.082 126.635ZM256.082 339.973C239.474 339.973 223.239 335.048 209.43 325.821C195.62 316.593 184.858 303.478 178.502 288.134C172.146 272.79 170.484 255.906 173.724 239.617C176.964 223.328 184.962 208.366 196.706 196.622C208.45 184.878 223.412 176.88 239.701 173.64C255.99 170.4 272.874 172.063 288.218 178.419C303.562 184.775 316.677 195.538 325.904 209.347C335.131 223.156 340.056 239.392 340.056 256C340.056 278.271 331.209 299.63 315.46 315.378C299.712 331.126 278.353 339.973 256.082 339.973Z" fill="#FF0000"/>
<path d="M390.558 151.754C407.254 151.754 420.788 138.22 420.788 121.524C420.788 104.828 407.254 91.294 390.558 91.294C373.863 91.294 360.328 104.828 360.328 121.524C360.328 138.22 373.863 151.754 390.558 151.754Z" fill="#FF0000"/>
</svg>
