<svg width="200" height="200" viewBox="0 0 200 200" fill="none" xmlns="http://www.w3.org/2000/svg">
<path d="M146.8 109.8C144 109.2 141.3 110.8 140.4 113.5C138.4 119.4 135 124.8 130.5 129.3C114.4 145.4 88.1 145.4 71.9 129.3C54.9 112.3 55.8 84.1999 74.5 68.3999C81.5 62.3999 90.5 58.9999 99.7 58.6999C110.8 58.2999 121.4 62.2999 129.5 69.7999L122.1 77.1999C120.4 78.8999 121.6 81.6999 124 81.6999H146.8C148.2 81.6999 149.4 80.4999 149.4 79.0999V56.1999C149.4 53.8999 146.6 52.6999 144.9 54.2999L137.2 61.9999C127 52.1999 113.4 47.0999 99 47.6999C87.5 48.1999 76.5 52.3999 67.7 59.7999C43.8 79.7999 42.7 115.6 64.2 137.1C74.4 147.3 87.8 152.4 101.3 152.4C114.7 152.4 128.1 147.3 138.4 137.1C144.1 131.4 148.3 124.6 150.9 117.1C151.9 113.9 150 110.5 146.8 109.8Z" fill="white"/>
</svg>
